<?xml version="1.0" standalone="no"?>
<!DOCTYPE svg PUBLIC "-//W3C//DTD SVG 20010904//EN"
 "http://www.w3.org/TR/2001/REC-SVG-20010904/DTD/svg10.dtd">
<svg version="1.0" xmlns="http://www.w3.org/2000/svg"
 width="1126.000000pt" height="824.000000pt" viewBox="0 0 1126.000000 824.000000"
 preserveAspectRatio="xMidYMid meet">

<g transform="translate(0.000000,824.000000) scale(0.100000,-0.100000)"
fill="#000000" stroke="none">
<path d="M4823 7699 c-19 -19 -15 -78 6 -125 22 -49 61 -75 173 -115 l83 -29
-57 5 c-32 3 -88 17 -125 31 -108 40 -101 40 -118 1 -8 -20 -20 -68 -27 -106
-11 -66 -11 -72 9 -99 42 -57 65 -116 69 -176 3 -57 3 -59 -6 -21 -13 47 -67
135 -84 135 -18 0 -43 -30 -62 -75 -12 -28 -17 -67 -17 -125 0 -124 42 -200
117 -212 15 -2 28 -29 56 -113 43 -129 103 -259 154 -334 20 -29 36 -56 36
-61 0 -4 -28 -31 -61 -60 l-62 -54 99 -17 c101 -17 155 -34 215 -65 55 -28
142 -85 137 -90 -3 -2 -36 10 -74 27 -139 64 -300 90 -420 70 -45 -8 -108 -31
-179 -65 -195 -95 -368 -127 -568 -107 -61 7 -143 20 -182 30 l-70 18 190 5
c141 4 216 11 290 27 109 23 260 71 313 100 l34 17 -81 32 c-238 94 -412 95
-672 2 -121 -43 -256 -107 -307 -146 -18 -14 -51 -44 -72 -67 -74 -76 -33 24
45 111 l46 51 -58 18 c-81 24 -260 24 -328 -1 -79 -29 -185 -95 -249 -155 -38
-37 -54 -47 -46 -31 28 54 106 144 159 186 57 44 57 44 75 129 48 235 152 456
274 588 48 51 46 55 -18 32 -39 -14 -41 -14 -29 2 33 39 95 54 216 54 105 -1
220 -13 256 -27 19 -7 233 23 258 36 51 28 43 101 -15 126 l-31 13 42 6 c23 4
55 16 72 26 l31 19 0 94 c0 135 -6 153 -64 209 -63 61 -150 128 -195 152 -30
15 -42 16 -95 5 -81 -15 -211 -68 -381 -153 -157 -79 -206 -121 -270 -228 -22
-36 -110 -161 -195 -277 -226 -309 -240 -329 -375 -532 -200 -301 -301 -493
-324 -617 -18 -92 32 -206 127 -295 244 -228 674 -315 1067 -216 79 19 159 55
264 117 29 18 55 30 58 28 6 -6 -117 -118 -154 -140 -18 -10 -33 -21 -33 -23
0 -2 38 -54 84 -116 214 -289 482 -525 750 -660 43 -21 76 -41 74 -43 -8 -8
-217 45 -326 83 -90 31 -109 35 -101 21 35 -67 201 -316 248 -373 92 -113 209
-203 393 -301 56 -30 96 -55 88 -55 -17 0 -266 63 -294 75 -17 7 -17 6 -6 -16
25 -47 109 -165 179 -254 120 -151 161 -258 161 -425 l0 -95 96 180 c53 99
127 241 166 315 39 74 74 140 78 145 4 6 42 78 85 160 43 83 81 155 85 160 4
6 42 78 85 160 43 83 81 155 85 160 4 6 40 73 80 149 l73 139 -49 46 c-43 40
-297 279 -426 401 l-47 45 45 110 c181 441 358 843 448 1015 38 74 86 169 107
210 41 84 109 261 109 285 0 9 12 18 29 21 68 14 111 100 111 223 0 65 -5 86
-27 132 -16 30 -35 54 -43 54 -8 0 -28 -25 -43 -55 l-28 -55 7 45 c3 25 17 64
31 88 20 35 23 51 18 83 -18 103 -109 221 -211 272 -106 53 -184 67 -474 87
-85 6 -204 17 -265 25 -202 26 -229 27 -242 14z"/>
<path d="M6863 7580 c-59 -25 -225 -166 -249 -211 -16 -31 -30 -192 -21 -230
7 -29 47 -54 102 -64 22 -4 33 -10 25 -13 -33 -11 -60 -46 -60 -78 0 -45 30
-60 160 -79 92 -14 110 -14 188 1 60 11 125 15 216 12 123 -3 134 -5 174 -31
23 -15 42 -29 42 -32 0 -2 -19 2 -41 10 -23 8 -46 15 -50 15 -5 0 17 -33 49
-72 70 -87 105 -144 155 -256 35 -77 98 -282 111 -362 4 -25 16 -42 41 -59 45
-31 135 -127 164 -176 21 -36 20 -35 -41 20 -83 75 -218 142 -317 157 -76 12
-216 1 -274 -21 l-28 -11 39 -47 c43 -53 76 -107 86 -140 5 -15 -14 -1 -57 41
-51 52 -85 75 -178 120 -174 84 -388 147 -498 146 -35 -1 -38 -4 -83 -84 -27
-46 -48 -88 -48 -94 0 -5 19 -15 43 -21 129 -35 194 -43 377 -48 l195 -6 -68
-18 c-126 -32 -267 -43 -390 -29 -61 7 -131 18 -156 26 -25 7 -49 10 -53 6 -4
-4 -101 -173 -217 -377 l-210 -370 142 -138 c78 -76 179 -172 225 -214 45 -42
82 -79 82 -83 0 -4 -95 -115 -211 -246 -117 -131 -287 -324 -379 -429 -92
-104 -267 -302 -388 -440 -122 -137 -218 -253 -214 -257 13 -13 240 -86 343
-112 229 -55 271 -60 509 -60 239 0 312 10 460 65 46 17 168 75 178 84 2 1
-45 51 -103 109 -230 232 -314 388 -302 561 7 94 28 160 101 310 86 179 346
630 457 791 l28 40 93 -24 c84 -23 112 -25 288 -25 202 -1 280 9 450 54 396
107 716 328 746 516 24 150 -170 488 -671 1173 -94 129 -196 273 -227 320 -30
47 -69 100 -88 118 -39 39 -356 201 -463 236 -87 29 -154 39 -184 26z"/>
<path d="M4679 2370 c-106 -18 -206 -99 -257 -208 -23 -49 -27 -70 -27 -147 0
-80 3 -97 32 -157 38 -81 97 -142 172 -177 47 -22 70 -26 141 -26 74 0 92 4
143 29 71 36 130 99 165 174 39 84 43 206 10 289 -31 76 -70 125 -133 167 -78
52 -161 71 -246 56z m163 -176 c117 -82 119 -265 4 -358 -34 -28 -45 -31 -105
-31 -88 0 -137 30 -175 106 -57 116 -12 254 99 305 48 23 128 13 177 -22z"/>
<path d="M2490 2016 l0 -356 75 0 75 0 0 145 0 145 100 0 c118 0 151 11 202
67 88 99 61 264 -55 325 -38 21 -58 23 -219 26 l-178 4 0 -356z m321 203 c48
-25 44 -105 -7 -128 -14 -6 -56 -11 -94 -11 l-70 0 0 75 0 75 76 0 c41 0 84
-5 95 -11z"/>
<path d="M3207 2363 c-4 -3 -7 -35 -7 -70 l0 -63 90 0 90 0 0 -285 0 -285 75
0 75 0 0 285 0 285 90 0 90 0 0 70 0 70 -248 0 c-137 0 -252 -3 -255 -7z"/>
<path d="M5340 2015 l0 -355 75 0 75 0 2 227 3 226 165 -224 165 -224 73 -3
72 -3 0 356 0 355 -75 0 -75 0 -2 -231 -3 -230 -169 230 -170 231 -68 0 -68 0
0 -355z"/>
<path d="M6240 2366 c-3 -2 -4 -162 -2 -355 l3 -351 220 0 220 0 -3 68 -3 67
-142 3 -143 3 -2 282 -3 282 -70 3 c-39 1 -73 1 -75 -2z"/>
<path d="M6910 2305 c0 -63 1 -65 25 -65 l25 0 0 -225 0 -225 -25 0 c-24 0
-25 -2 -25 -65 l0 -65 125 0 125 0 0 65 c0 63 -1 65 -25 65 l-25 0 0 225 0
225 25 0 c24 0 25 2 25 65 l0 65 -125 0 -125 0 0 -65z"/>
<path d="M7430 2015 l0 -355 75 0 75 0 2 227 3 226 165 -224 165 -224 73 -3
72 -3 0 356 0 355 -75 0 -75 0 -2 -231 -3 -230 -169 230 -169 231 -69 0 -68 0
0 -355z"/>
<path d="M8330 2015 l0 -355 220 0 220 0 0 70 0 70 -145 0 -145 0 0 85 0 85
125 0 125 0 0 65 0 65 -125 0 -125 0 0 65 0 65 145 0 145 0 0 70 0 70 -220 0
-220 0 0 -355z"/>
<path d="M525 946 c-37 -16 -82 -67 -91 -102 -10 -41 1 -119 22 -147 43 -61
155 -85 228 -50 43 20 50 36 26 58 -18 16 -21 16 -44 1 -64 -41 -151 -6 -163
66 -15 96 75 160 158 111 27 -16 29 -16 49 2 16 15 18 21 7 33 -32 39 -133 54
-192 28z"/>
<path d="M777 953 c-4 -3 -7 -78 -7 -165 l0 -158 41 0 40 0 -2 68 -3 67 75 0
74 0 3 -67 3 -68 34 0 35 0 0 165 0 165 -35 0 -35 0 0 -65 0 -66 -77 3 -78 3
3 40 c5 64 -4 85 -37 85 -15 0 -31 -3 -34 -7z"/>
<path d="M1226 928 c-8 -18 -41 -93 -74 -166 l-60 -132 38 0 c35 0 40 3 51 35
l13 35 79 0 78 0 15 -35 c12 -31 19 -35 50 -35 43 0 45 -11 -41 181 -64 144
-64 144 -100 147 -32 3 -37 0 -49 -30z m78 -110 l25 -58 -54 0 c-52 0 -54 1
-46 23 24 60 43 99 46 96 2 -2 15 -30 29 -61z"/>
<path d="M1480 795 l0 -165 35 0 34 0 3 101 3 100 83 -100 c71 -87 86 -101
112 -101 l30 0 0 165 0 165 -35 0 -34 0 -3 -102 -3 -103 -84 103 c-71 86 -88
102 -112 102 l-29 0 0 -165z"/>
<path d="M1915 940 c-117 -58 -120 -232 -4 -290 47 -24 124 -26 179 -4 l40 16
0 70 0 69 -32 -3 c-32 -3 -33 -5 -38 -53 l-5 -50 -48 -3 c-41 -3 -51 1 -77 27
-24 23 -30 38 -30 71 0 52 13 76 50 95 37 19 73 19 111 -1 28 -14 32 -14 50 2
27 25 24 33 -23 54 -56 25 -123 25 -173 0z"/>
<path d="M2190 795 l0 -165 125 0 125 0 0 30 0 30 -90 0 -90 0 0 40 0 40 75 0
c73 0 75 1 75 25 0 23 -3 24 -72 27 l-73 3 -3 38 -3 37 85 0 86 0 0 30 0 30
-120 0 -120 0 0 -165z"/>
<path d="M2570 953 c0 -5 27 -52 60 -106 55 -91 60 -103 60 -158 l0 -59 35 0
35 0 0 58 c0 53 5 66 60 156 33 54 60 103 60 108 0 5 -14 8 -32 6 -28 -3 -37
-12 -72 -70 -23 -38 -44 -68 -47 -68 -4 0 -26 32 -49 70 -39 65 -45 70 -76 70
-19 0 -34 -3 -34 -7z"/>
<path d="M2979 937 c-49 -26 -89 -89 -89 -142 1 -46 34 -109 71 -136 47 -33
163 -35 206 -3 49 37 73 82 73 139 0 129 -140 205 -261 142z m140 -52 c58 -29
67 -128 16 -172 -81 -70 -202 22 -161 121 26 61 85 82 145 51z"/>
<path d="M3290 841 c0 -106 2 -121 23 -152 32 -48 62 -60 134 -56 107 5 133
48 133 217 l0 110 -35 0 -35 0 0 -109 c0 -94 -3 -112 -21 -135 -15 -19 -30
-26 -54 -26 -24 0 -39 7 -54 26 -18 23 -21 41 -21 135 l0 109 -35 0 -35 0 0
-119z"/>
<path d="M3650 796 l0 -166 35 0 c35 0 35 0 35 45 l0 45 38 0 c33 0 40 -5 65
-45 26 -41 32 -45 68 -45 l40 0 -36 52 -35 52 25 21 c56 45 49 142 -12 178
-23 13 -61 20 -128 24 l-95 6 0 -167z m185 84 c23 -19 19 -66 -7 -84 -12 -9
-42 -16 -65 -16 l-43 0 0 61 0 62 50 -5 c27 -3 56 -11 65 -18z"/>
<path d="M4097 953 c-4 -3 -7 -78 -7 -165 l0 -158 41 0 41 0 -4 68 -3 67 75 0
75 0 3 -67 3 -68 34 0 35 0 0 165 0 165 -35 0 -35 0 0 -65 0 -65 -78 0 -78 0
2 48 c4 66 -2 82 -35 82 -15 0 -31 -3 -34 -7z"/>
<path d="M4546 928 c-8 -18 -39 -89 -70 -157 -31 -69 -56 -128 -56 -133 0 -4
15 -8 34 -8 31 0 36 4 47 35 l13 35 79 0 78 0 15 -35 c12 -31 19 -35 50 -35
43 0 45 -11 -41 181 -64 144 -64 144 -100 147 -32 3 -37 0 -49 -30z m93 -155
c1 -9 -15 -13 -48 -13 l-50 0 16 38 c8 20 20 48 25 62 10 24 11 24 34 -25 12
-27 23 -56 23 -62z"/>
<path d="M4800 794 l0 -167 113 5 c125 6 160 17 178 59 14 34 -2 84 -32 100
-19 9 -18 10 1 31 25 27 26 69 3 97 -21 25 -96 41 -194 41 l-69 0 0 -166z
m198 94 c34 -34 -3 -68 -74 -68 l-54 0 0 40 0 40 58 0 c32 0 63 -5 70 -12z m6
-131 c11 -8 17 -23 14 -38 -3 -21 -10 -25 -59 -33 -77 -12 -89 -6 -89 44 l0
40 58 0 c32 0 66 -6 76 -13z"/>
<path d="M5147 953 c-4 -3 -7 -78 -7 -165 l0 -158 40 0 40 0 0 143 c0 173 -3
187 -39 187 -15 0 -31 -3 -34 -7z"/>
<path d="M5250 930 c0 -29 1 -30 50 -30 l50 0 0 -135 0 -135 35 0 34 0 3 133
3 132 53 3 c51 3 53 4 50 30 l-3 27 -137 3 -138 3 0 -31z"/>
<path d="M5613 953 c-31 -6 -73 -59 -73 -92 0 -45 26 -69 100 -92 86 -26 104
-44 71 -70 -27 -22 -52 -23 -106 -4 -52 19 -50 19 -63 -9 -10 -23 -8 -25 29
-40 81 -33 189 -15 214 35 36 69 9 108 -98 140 -70 21 -88 38 -67 64 15 18 92
20 122 4 22 -12 38 1 38 33 0 29 -89 46 -167 31z"/>
<path d="M6315 941 c-117 -60 -120 -233 -4 -291 66 -34 169 -23 207 23 9 11 8
18 -8 32 -20 18 -22 18 -49 2 -76 -45 -161 1 -161 87 0 60 30 95 88 103 34 5
49 1 71 -15 l29 -21 21 23 22 24 -32 23 c-46 33 -130 37 -184 10z"/>
<path d="M6570 795 l0 -165 35 0 34 0 3 68 3 67 75 0 75 0 3 -67 3 -68 34 0
35 0 0 165 0 165 -35 0 -35 0 0 -65 0 -65 -80 0 -80 0 0 65 0 65 -35 0 -35 0
0 -165z"/>
<path d="M7026 928 c-8 -18 -39 -89 -70 -157 -31 -69 -56 -128 -56 -133 0 -4
15 -8 34 -8 31 0 36 4 47 35 l13 35 79 0 78 0 15 -35 c12 -31 19 -35 50 -35
43 0 45 -11 -41 181 -64 144 -64 144 -100 147 -32 3 -37 0 -49 -30z m93 -155
c1 -9 -15 -13 -48 -13 l-50 0 16 38 c8 20 20 48 25 62 10 24 11 24 34 -25 12
-27 23 -56 23 -62z"/>
<path d="M7280 795 l0 -165 35 0 34 0 3 100 3 99 80 -99 c66 -83 85 -100 108
-100 l27 0 0 166 0 165 -32 -3 -33 -3 -3 -98 -3 -98 -81 100 c-69 84 -87 101
-110 101 l-28 0 0 -165z"/>
<path d="M7715 940 c-58 -29 -88 -78 -88 -144 0 -68 25 -113 79 -143 47 -27
125 -30 184 -7 l40 16 0 70 0 69 -32 -3 c-32 -3 -33 -5 -38 -53 l-5 -50 -48
-3 c-41 -3 -51 1 -77 27 -24 23 -30 38 -30 71 0 52 13 76 50 95 37 19 73 19
111 -1 28 -14 32 -14 50 2 27 24 24 30 -24 53 -55 26 -120 27 -172 1z"/>
<path d="M7990 795 l0 -165 125 0 125 0 0 30 0 30 -90 0 -90 0 0 40 0 40 75 0
c73 0 75 1 75 25 0 24 -2 25 -75 25 l-75 0 0 40 0 40 85 0 85 0 0 30 0 30
-120 0 -120 0 0 -165z"/>
<path d="M8370 950 c0 -5 27 -54 60 -108 54 -90 60 -105 60 -156 l0 -56 35 0
35 0 0 60 c0 55 5 67 60 158 33 55 60 102 60 106 0 3 -14 6 -30 6 -31 0 -34
-3 -115 -135 -8 -13 -18 -3 -55 59 -41 70 -47 76 -77 76 -18 0 -33 -4 -33 -10z"/>
<path d="M8780 938 c-65 -34 -85 -67 -85 -143 0 -69 15 -99 69 -139 40 -30
162 -30 202 0 53 39 69 70 69 137 0 49 -5 69 -24 96 -49 68 -151 89 -231 49z
m149 -64 c56 -46 50 -138 -10 -169 -78 -41 -159 9 -159 96 0 22 10 41 34 65
43 43 90 46 135 8z"/>
<path d="M9090 839 c0 -133 9 -162 60 -193 43 -25 129 -21 171 7 46 31 58 72
58 200 l1 107 -34 0 -34 0 -3 -114 c-5 -131 -17 -156 -76 -156 -62 0 -73 24
-73 155 l0 115 -35 0 -35 0 0 -121z"/>
<path d="M9447 953 c-4 -3 -7 -78 -7 -165 l0 -158 40 0 40 0 0 45 c0 45 0 45
35 45 29 0 38 -6 65 -45 28 -41 35 -45 70 -45 l40 0 -37 51 -36 51 28 22 c22
18 29 33 32 73 5 45 2 54 -24 83 -22 25 -41 35 -79 41 -61 10 -158 11 -167 2z
m188 -73 c24 -20 19 -67 -9 -85 -24 -16 -114 -18 -108 -2 1 4 2 30 2 58 l0 52
50 -5 c27 -3 56 -11 65 -18z"/>
<path d="M9890 795 l0 -165 120 0 120 0 0 30 0 30 -85 0 -85 0 0 135 0 135
-35 0 -35 0 0 -165z"/>
<path d="M10160 795 l0 -165 35 0 35 0 0 165 0 165 -35 0 -35 0 0 -165z"/>
<path d="M10300 795 l0 -165 35 0 35 0 0 60 0 60 75 0 75 0 0 30 0 30 -75 0
-75 0 0 45 0 45 85 0 85 0 0 30 0 30 -120 0 -120 0 0 -165z"/>
<path d="M10587 954 c-4 -4 -7 -79 -7 -166 l0 -158 125 0 125 0 0 30 0 30 -91
0 -90 0 3 38 3 37 78 3 c74 3 77 4 77 27 0 23 -3 24 -77 27 l-78 3 0 35 0 35
88 3 88 3 -3 27 -3 27 -116 3 c-63 1 -118 -1 -122 -4z"/>
<path d="M5942 763 c3 -27 6 -28 66 -31 l62 -3 0 31 0 30 -66 0 -65 0 3 -27z"/>
</g>
</svg>
